<svg width="48" height="48" viewBox="0 0 48 48" fill="none" xmlns="http://www.w3.org/2000/svg">
<rect width="48" height="48" rx="8" fill="url(#paint0_linear_454_612)"/>
<path d="M12.5169 24.7027L17.6035 27.876V33.1796C17.5725 34.1338 18.8887 34.6664 19.5855 33.9637L22.6514 31.0345L26.9405 33.7122C27.134 33.8306 27.3508 33.8971 27.5753 33.8971C28.0554 33.8971 28.5044 33.6013 28.667 33.1722L35.9368 14.3396C35.991 14.1917 36.0143 14.0364 35.991 13.8884C35.9601 13.1191 35.0697 12.6383 34.342 12.9564L12.6563 22.7721C11.8511 23.105 11.7659 24.2663 12.5169 24.7027ZM29.2786 17.7052L19.9029 26.6629L15.5209 23.926L29.2786 17.7052Z" fill="white"/>
<defs>
<linearGradient id="paint0_linear_454_612" x1="34.496" y1="49.4483" x2="31.0299" y2="-3.5391" gradientUnits="userSpaceOnUse">
<stop stop-color="#277DFE"/>
<stop offset="0.0001" stop-color="#0066FF"/>
<stop offset="1" stop-color="#009EF7"/>
</linearGradient>
</defs>
</svg>
