<svg width="23" height="23" viewBox="0 0 23 23" fill="none" xmlns="http://www.w3.org/2000/svg">
<path d="M17.5337 16.0018L22.1736 20.6406L20.6407 22.1735L16.0018 17.5336C14.2758 18.9173 12.1289 19.6698 9.91675 19.6667C4.53475 19.6667 0.166748 15.2987 0.166748 9.91669C0.166748 4.53469 4.53475 0.166687 9.91675 0.166687C15.2987 0.166687 19.6667 4.53469 19.6667 9.91669C19.6699 12.1289 18.9173 14.2757 17.5337 16.0018ZM15.3605 15.1979C16.7354 13.7841 17.5032 11.8888 17.5001 9.91669C17.5001 5.72635 14.106 2.33335 9.91675 2.33335C5.72641 2.33335 2.33341 5.72635 2.33341 9.91669C2.33341 14.1059 5.72641 17.5 9.91675 17.5C11.8889 17.5031 13.7841 16.7353 15.198 15.3604L15.3605 15.1979Z" fill="white"/>
</svg>
