<svg width="32" height="25" viewBox="0 0 32 25" fill="none" xmlns="http://www.w3.org/2000/svg">
<path d="M28.0515 3.12181C24.1303 -0.0893342 20.3738 0.000621684 20.3738 0.000621684L19.9898 0.480635C24.6514 2.01137 26.8176 4.26212 26.8176 4.26212C20.1484 0.243209 11.6532 0.271965 4.71618 4.26212C4.71618 4.26212 6.96462 1.89118 11.9004 0.360447L11.6262 0.000253213C11.6262 0.000253213 7.89701 -0.0897033 3.9485 3.12144C3.9485 3.12144 0 10.8946 0 20.4683C0 20.4683 2.30335 24.7899 8.36354 25C8.36354 25 9.37812 23.6794 10.2007 22.5391C6.71805 21.3988 5.40199 19.0279 5.40199 19.0279C7.58981 20.5262 9.80221 21.4641 12.559 22.0591C17.0444 23.0696 22.6236 22.0307 26.7903 19.0279C26.7903 19.0279 25.4194 21.4589 21.8273 22.5693C22.6498 23.6798 23.6371 24.9701 23.6371 24.9701C29.6966 24.7604 32 20.4388 32 20.4686C32 10.8949 28.0515 3.12181 28.0515 3.12181ZM10.8858 17.6778C9.35016 17.6778 8.08901 16.2071 8.08901 14.3763C8.20118 9.99204 13.5988 10.0057 13.683 14.3763C13.6827 16.2071 12.4488 17.6778 10.8858 17.6778ZM20.8945 17.6778C19.3589 17.6778 18.0977 16.2071 18.0977 14.3763C18.221 10.0005 23.5512 9.99868 23.6917 14.3763C23.6914 16.2071 22.4575 17.6778 20.8945 17.6778Z" fill="#5E6B74"/>
</svg>
