<svg width="28" height="28" viewBox="0 0 28 28" fill="none" xmlns="http://www.w3.org/2000/svg">
<path d="M25.8667 0.666504H2.13341C1.74443 0.666504 1.37138 0.821027 1.09632 1.09608C0.821272 1.37113 0.666748 1.74419 0.666748 2.13317V25.8665C0.666748 26.0591 0.704685 26.2498 0.778392 26.4278C0.852098 26.6057 0.960132 26.7674 1.09632 26.9036C1.23252 27.0398 1.3942 27.1478 1.57215 27.2215C1.75009 27.2952 1.94081 27.3332 2.13341 27.3332H14.9067V16.9998H11.4401V12.9998H14.9067V9.99984C14.8349 9.29551 14.9181 8.58401 15.1504 7.91522C15.3827 7.24643 15.7584 6.63656 16.2514 6.12839C16.7443 5.62021 17.3424 5.22603 18.0038 4.97349C18.6653 4.72095 19.3739 4.61617 20.0801 4.6665C21.1179 4.66012 22.1551 4.71354 23.1867 4.8265V8.4265H21.0667C19.3867 8.4265 19.0667 9.2265 19.0667 10.3865V12.9598H23.0667L22.5467 16.9598H19.0667V27.3332H25.8667C26.0594 27.3332 26.2501 27.2952 26.428 27.2215C26.606 27.1478 26.7676 27.0398 26.9038 26.9036C27.04 26.7674 27.1481 26.6057 27.2218 26.4278C27.2955 26.2498 27.3334 26.0591 27.3334 25.8665V2.13317C27.3334 1.94057 27.2955 1.74985 27.2218 1.5719C27.1481 1.39396 27.04 1.23227 26.9038 1.09608C26.7676 0.959888 26.606 0.851854 26.428 0.778147C26.2501 0.70444 26.0594 0.666504 25.8667 0.666504Z" fill="#5E6B74"/>
</svg>
