<svg width="28" height="28" viewBox="0 0 28 28" fill="none" xmlns="http://www.w3.org/2000/svg">
<path d="M27.2534 8.5065L26.7542 8.53476C26.8333 9.9314 26.8334 10.3701 26.8334 13.9998C26.8334 15.809 26.8135 16.8245 26.7936 17.5631C26.789 17.7323 26.7845 17.8879 26.7801 18.0359C26.7655 18.5301 26.7535 18.9391 26.7534 19.4872C26.7282 20.5361 26.5316 21.5737 26.1713 22.5591C25.8617 23.3803 25.3747 24.1231 24.7451 24.7345L24.7394 24.74L24.7338 24.7458C24.1263 25.3747 23.3836 25.8572 22.5621 26.1568L22.5621 26.1567L22.5566 26.1588C21.5734 26.5305 20.534 26.7315 19.4831 26.7533L19.4741 26.7535L19.4652 26.754C18.0685 26.833 17.6298 26.8332 14.0001 26.8332C10.3704 26.8332 9.93165 26.833 8.53501 26.754L8.52606 26.7535L8.5171 26.7533C7.46621 26.7315 6.42676 26.5305 5.44355 26.1588L5.43986 26.1574C4.61867 25.8544 3.87561 25.3716 3.26501 24.7444L3.25966 24.7389L3.25415 24.7336C2.62524 24.126 2.14275 23.3834 1.84315 22.5619L1.84319 22.5619L1.84112 22.5564C1.46946 21.5732 1.26841 20.5337 1.24664 19.4828L1.24646 19.4739L1.24595 19.4649C1.16689 18.0683 1.16675 17.6296 1.16675 13.9998C1.16675 10.3701 1.16689 9.9314 1.24595 8.53476L1.24646 8.52582L1.24664 8.51686C1.26841 7.46597 1.46946 6.42651 1.84112 5.4433L1.84115 5.44331L1.84315 5.43781C2.14275 4.61629 2.62524 3.87367 3.25415 3.26611L3.25966 3.26078L3.26501 3.25529C3.87561 2.62809 4.61867 2.14531 5.43986 1.84225L5.43987 1.84226L5.44354 1.84087C6.42676 1.46921 7.46621 1.26816 8.5171 1.2464L8.52606 1.24621L8.53501 1.2457C9.93165 1.16665 10.3704 1.1665 14.0001 1.1665C17.6298 1.1665 18.0685 1.16665 19.4652 1.2457L19.4741 1.24621L19.4831 1.2464C20.534 1.26816 21.5734 1.46921 22.5566 1.84087L22.5566 1.8409L22.5621 1.84291C23.3836 2.1425 24.1263 2.625 24.7338 3.2539L24.7337 3.25404L24.7436 3.26379C25.3712 3.87819 25.8584 4.62112 26.1717 5.44156C26.5324 6.42845 26.7289 7.46777 26.7536 8.51822L27.2534 8.5065ZM6.13341 3.59984C6.94615 3.30656 7.80274 3.15328 8.66675 3.1465C9.17532 3.1465 9.56168 3.13487 10.0397 3.12047C10.8148 3.09711 11.831 3.0665 14.0001 3.0665H14.0001C17.5068 3.0665 18.0001 3.0665 19.3334 3.1465C20.1798 3.15621 21.0184 3.3095 21.8134 3.59984C22.4193 3.82471 22.9631 4.1903 23.4001 4.6665L6.13341 3.59984ZM24.8646 5.94812C24.6181 5.32941 24.2396 4.77197 23.7557 4.31461C23.2674 3.78681 22.6617 3.38132 21.9874 3.13107L21.9849 3.13017C21.1406 2.82183 20.2502 2.65838 19.3514 2.64669C18.012 2.5665 17.4949 2.5665 14.0225 2.5665H14.0001C12.2424 2.5665 11.2378 2.58656 10.5047 2.60669C10.3289 2.61152 10.1697 2.61631 10.0203 2.62081C9.54438 2.63514 9.16718 2.6465 8.66675 2.64649L8.66283 2.64652C7.74228 2.65374 6.82963 2.81705 5.9637 3.12952L5.94861 3.13497L5.93389 3.14137C5.31564 3.41044 4.76284 3.80969 4.31313 4.31174C3.80886 4.76064 3.41194 5.31734 3.15195 5.9407L3.14831 5.9494L3.14502 5.95824C2.82336 6.8195 2.65478 7.73033 2.64686 8.6496C2.56675 9.98818 2.56675 10.506 2.56675 13.9774V13.9998C2.56675 15.7575 2.5868 16.7621 2.60694 17.4952C2.61176 17.671 2.61656 17.8302 2.62106 17.9796C2.63539 18.4555 2.64675 18.8327 2.64675 19.3332V19.341L2.64699 19.3488C2.67599 20.2735 2.86744 21.1858 3.21257 22.0441C3.44419 22.6902 3.82055 23.2748 4.31286 23.7531C4.77442 24.23 5.32876 24.6072 5.94174 24.8616L5.95741 24.8681L5.97349 24.8736C6.85449 25.171 7.77988 25.3152 8.7095 25.3001C10.0434 25.3798 10.565 25.3798 14.0308 25.3798H14.0534C17.5532 25.3798 18.0628 25.3666 19.4023 25.2997C20.3019 25.2883 21.1931 25.1248 22.0383 24.8162L22.0383 24.8162L22.0434 24.8143C22.6867 24.5714 23.2697 24.1918 23.752 23.7017C24.2493 23.2213 24.6313 22.6346 24.8695 21.9854L24.8697 21.9847C25.1784 21.1395 25.3418 20.2483 25.3533 19.3487C25.4202 18.0092 25.4334 17.4995 25.4334 13.9998C25.4334 10.5017 25.4202 9.99092 25.3534 8.6528C25.3482 7.73467 25.1846 6.82429 24.8698 5.96174L24.8673 5.95489L24.8646 5.94812ZM20.3534 13.9989V13.9998C20.3534 15.2532 19.9819 16.4785 19.2858 17.5209C18.5897 18.5632 17.6002 19.3758 16.4425 19.856C15.2847 20.3363 14.0106 20.4625 12.7811 20.2189C11.5516 19.9753 10.4219 19.3727 9.53473 18.4872C8.64757 17.6018 8.04277 16.4733 7.79675 15.2443C7.55072 14.0152 7.67451 12.7409 8.15248 11.5822C8.63044 10.4235 9.44113 9.43245 10.4821 8.73432C11.5231 8.03619 12.7477 7.66228 14.0011 7.65984L14.0001 7.15984L14.002 7.65983C14.836 7.65657 15.6623 7.81822 16.4336 8.13548C17.2048 8.45274 17.9058 8.91935 18.496 9.50847C19.0863 10.0976 19.5543 10.7976 19.873 11.5682C20.1918 12.3389 20.3551 13.1649 20.3534 13.9989ZM20.509 5.96522C20.6898 5.84435 20.9025 5.77984 21.1201 5.77984C21.4118 5.77984 21.6916 5.89573 21.8979 6.10202C22.1042 6.30831 22.2201 6.5881 22.2201 6.87984C22.2201 7.09739 22.1556 7.31007 22.0347 7.49096C21.9138 7.67186 21.742 7.81285 21.541 7.8961C21.34 7.97936 21.1189 8.00114 20.9055 7.9587C20.6921 7.91626 20.4961 7.81149 20.3423 7.65766C20.1884 7.50382 20.0837 7.30782 20.0412 7.09444C19.9988 6.88106 20.0206 6.65988 20.1038 6.45889C20.1871 6.25789 20.3281 6.08609 20.509 5.96522ZM11.2556 18.1073C12.0679 18.6501 13.023 18.9398 14.0001 18.9398C14.6488 18.9398 15.2912 18.8121 15.8905 18.5638C16.4899 18.3155 17.0345 17.9517 17.4932 17.4929C17.9519 17.0342 18.3158 16.4896 18.564 15.8903C18.8123 15.2909 18.9401 14.6486 18.9401 13.9998C18.9401 13.0228 18.6504 12.0677 18.1075 11.2553C17.5647 10.4429 16.7932 9.80977 15.8905 9.43587C14.9879 9.06198 13.9946 8.96415 13.0363 9.15476C12.0781 9.34537 11.1978 9.81586 10.507 10.5067C9.8161 11.1976 9.34561 12.0778 9.155 13.0361C8.96439 13.9944 9.06222 14.9876 9.43612 15.8903C9.81001 16.793 10.4432 17.5645 11.2556 18.1073Z" fill="#5E6B74" stroke="black"/>
</svg>
