<svg width="28" height="28" viewBox="0 0 28 28" fill="none" xmlns="http://www.w3.org/2000/svg">
<path d="M25.3616 0.66669H2.63858C2.38315 0.663164 2.12953 0.709686 1.89219 0.8036C1.65485 0.897514 1.43845 1.03698 1.25534 1.21403C1.07224 1.39108 0.926012 1.60226 0.82502 1.83549C0.724028 2.06872 0.670247 2.31944 0.666748 2.57333V25.4263C0.670247 25.6802 0.724028 25.931 0.82502 26.1642C0.926012 26.3974 1.07224 26.6086 1.25534 26.7856C1.43845 26.9627 1.65485 27.1022 1.89219 27.1961C2.12953 27.29 2.38315 27.3365 2.63858 27.333H25.3616C25.617 27.3365 25.8706 27.29 26.108 27.1961C26.3453 27.1022 26.5617 26.9627 26.7448 26.7856C26.9279 26.6086 27.0742 26.3974 27.1751 26.1642C27.2761 25.931 27.3299 25.6802 27.3334 25.4263V2.57333C27.3299 2.31944 27.2761 2.06872 27.1751 1.83549C27.0742 1.60226 26.9279 1.39108 26.7448 1.21403C26.5617 1.03698 26.3453 0.897514 26.108 0.8036C25.8706 0.709686 25.617 0.663164 25.3616 0.66669ZM8.75528 22.9864H4.73113V10.9865H8.75528V22.9864ZM6.74321 9.30657C6.18823 9.30657 5.65598 9.08743 5.26355 8.69736C4.87112 8.30729 4.65065 7.77824 4.65065 7.2266C4.65065 6.67496 4.87112 6.14591 5.26355 5.75584C5.65598 5.36577 6.18823 5.14663 6.74321 5.14663C7.0379 5.11341 7.33633 5.14243 7.61896 5.2318C7.90159 5.32118 8.16204 5.46888 8.38326 5.66524C8.60447 5.8616 8.78147 6.10219 8.90266 6.37125C9.02385 6.64032 9.08649 6.9318 9.08649 7.2266C9.08649 7.5214 9.02385 7.81288 8.90266 8.08194C8.78147 8.35101 8.60447 8.5916 8.38326 8.78796C8.16204 8.98432 7.90159 9.13202 7.61896 9.22139C7.33633 9.31076 7.0379 9.33979 6.74321 9.30657ZM23.269 22.9864H19.2449V16.5465C19.2449 14.9332 18.6681 13.8798 17.206 13.8798C16.7535 13.8831 16.3129 14.0242 15.9435 14.2841C15.5742 14.5439 15.2938 14.9101 15.1403 15.3332C15.0353 15.6465 14.9898 15.9766 15.0061 16.3065V22.973H10.982C10.982 22.973 10.982 12.0665 10.982 10.9732H15.0061V12.6665C15.3717 12.036 15.9034 11.5166 16.5439 11.1641C17.1845 10.8117 17.9096 10.6397 18.6413 10.6665C21.324 10.6665 23.269 12.3865 23.269 16.0798V22.9864Z" fill="#5E6B74"/>
</svg>
